<svg width="100" height="110" viewBox="0 0 100 110" fill="none" xmlns="http://www.w3.org/2000/svg">
<g clip-path="url(#clip0_10062_113731)">
<path d="M97.7081 88.5625C93.9264 95.1111 90.471 99.9725 88.4283 101.956C84.55 105.823 82.5951 106.617 74.0225 106.61C64.3531 106.603 63.9021 104.618 65.757 97.1758L77.6832 49.84C78.952 44.8776 79.5802 44.4824 82.109 43.9879L87.3684 42.999L87.9019 41.2126L63.6863 41.1966L74.1471 0.00354456L68.7158 0L16.8065 56.0625C8.55503 64.6952 7.39506 65.5867 4.40299 66.2814L1.11084 66.9744L0 68.7591L19.4142 68.7733L20.425 66.9868L17.5821 66.2903C15.6658 65.7923 15.4166 64.8973 16.087 63.2101C16.7556 61.5229 18.6052 59.1409 21.2551 56.2627L31.8739 44.4541L52.0918 44.4682L48.8172 56.2822C48.31 58.0687 47.6046 60.3514 46.936 62.0404C46.1884 63.9261 45.0548 65.514 41.1203 66.3063L37.9264 66.9992L36.9174 68.7857L56.4808 68.7998C56.4808 68.7998 57.839 64.2327 59.6273 57.1843L62.9405 44.1404L65.6482 44.3779C68.1033 44.8759 68.3508 45.5706 67.1961 50.3345L54.2801 101.337C53.0096 106.299 52.076 106.794 49.7455 107.29L45.1934 108.18L44.6599 109.966L93.3104 110L100.002 88.5661L97.7081 88.5625ZM52.885 41.1948L34.7782 41.1807L60.1011 13.1007H60.6047L52.885 41.1948Z" fill="white"/>
</g>
<defs>
<clipPath id="clip0_10062_113731">
<rect width="100" height="110" fill="white"/>
</clipPath>
</defs>
</svg>
